<?xml version="1.0" standalone="no"?>
<!DOCTYPE svg PUBLIC "-//W3C//DTD SVG 20010904//EN"
 "http://www.w3.org/TR/2001/REC-SVG-20010904/DTD/svg10.dtd">
<svg version="1.0" xmlns="http://www.w3.org/2000/svg"
 width="1067.000000pt" height="1067.000000pt" viewBox="0 0 1067.000000 1067.000000"
 preserveAspectRatio="xMidYMid meet">
<metadata>
Created by potrace 1.11, written by Peter Selinger 2001-2013
</metadata>
<g transform="translate(0.000000,1067.000000) scale(0.100000,-0.100000)"
fill="#000000" stroke="none">
<path d="M3298 8075 c-2 -2 -26 -6 -53 -10 -129 -15 -272 -62 -415 -137 -274
-142 -496 -392 -606 -685 -14 -37 -27 -75 -29 -83 -2 -8 -11 -42 -19 -75 -9
-32 -16 -69 -16 -81 0 -15 -101 -123 -327 -350 -228 -229 -338 -347 -362 -388
-107 -181 -104 -421 6 -604 28 -46 213 -238 734 -760 l696 -697 1 -121 c2
-134 17 -220 58 -334 78 -218 244 -401 457 -505 131 -63 224 -85 392 -92 l140
-6 80 -76 c232 -222 505 -368 801 -430 141 -30 191 -35 349 -35 166 0 239 8
395 45 248 58 517 198 699 364 24 22 235 230 469 462 234 233 428 423 430 423
3 0 203 -198 445 -441 242 -242 448 -444 458 -450 53 -28 46 -34 629 549 306
306 561 566 567 577 5 11 8 26 7 33 -1 6 -2 18 -3 26 0 7 -75 88 -166 179
-175 176 -228 212 -340 237 -108 24 -245 5 -332 -45 l-41 -25 -77 78 -76 77
36 6 c71 12 72 15 120 389 3 19 12 85 20 145 9 61 18 128 21 150 3 22 9 67 14
100 5 33 12 80 14 105 3 25 7 61 10 80 3 19 15 103 26 185 11 83 27 197 35
255 29 204 29 212 6 242 -14 18 -35 29 -64 33 -23 4 -49 9 -57 10 -8 1 -42 6
-75 10 -32 4 -66 8 -75 10 -81 15 -211 26 -257 20 -157 -18 -301 -119 -372
-261 -23 -46 -36 -62 -49 -60 -9 2 -39 7 -67 10 -27 4 -57 9 -65 11 -8 2 -40
6 -71 10 -31 3 -65 7 -75 9 -11 2 -44 7 -75 10 -31 4 -65 8 -75 10 -11 2 -41
7 -69 10 -85 11 -118 15 -190 26 -38 6 -113 13 -165 17 -52 3 -96 7 -98 8 -2
2 -3 100 -4 218 0 119 -4 235 -10 259 -5 24 -11 50 -13 58 -9 44 -50 135 -84
186 -121 187 -324 296 -551 297 -218 0 -417 -104 -540 -284 -97 -141 -115
-230 -115 -562 l0 -255 -160 1 -160 1 -164 163 -163 164 6 42 c4 23 10 60 14
82 14 78 6 366 -12 440 -9 39 -19 81 -22 94 -10 47 -73 199 -110 267 -55 102
-163 241 -247 320 -193 181 -418 292 -681 337 -69 12 -329 21 -338 12z m325
-182 c405 -70 754 -376 877 -768 12 -39 23 -81 25 -95 2 -14 8 -47 13 -73 5
-27 10 -99 11 -160 2 -122 4 -117 -66 -178 -54 -48 -185 -131 -257 -164 -184
-85 -362 -114 -552 -91 -75 9 -84 15 -91 57 -21 137 -112 259 -237 318 -68 33
-95 39 -179 40 l-58 1 -20 47 c-64 149 -69 350 -14 556 39 150 140 325 261
456 l67 72 69 -2 c39 -1 107 -9 151 -16z m-523 -75 c-88 -121 -163 -281 -199
-430 -27 -114 -32 -156 -31 -281 1 -119 17 -218 50 -316 l23 -64 -29 -21 c-56
-41 -106 -102 -141 -174 -29 -61 -36 -87 -39 -151 -15 -338 326 -558 627 -406
63 32 149 119 177 178 12 25 25 48 30 51 5 3 42 0 83 -7 135 -24 314 -10 464
35 39 12 75 22 81 24 19 3 176 80 231 113 l53 31 -11 -27 c-70 -188 -241 -398
-419 -514 -260 -170 -541 -223 -861 -164 -56 10 -183 57 -257 94 -279 141
-491 396 -576 691 -34 121 -37 140 -41 280 -12 444 224 832 627 1036 49 24 89
44 90 43 2 0 14 4 28 9 29 11 64 19 68 16 2 -1 -11 -22 -28 -46z m3041 -758
c112 -38 193 -102 260 -204 22 -33 39 -62 39 -65 0 -3 -200 -6 -445 -6 -365 0
-445 2 -445 13 0 25 72 122 122 166 49 43 138 93 181 102 79 17 109 20 165 17
35 -2 90 -12 123 -23z m-3995 -358 c-9 -15 26 -202 55 -297 100 -322 341 -607
645 -764 l62 -32 0 -171 0 -170 -554 553 c-304 304 -550 557 -547 563 16 26
329 333 336 329 4 -2 5 -7 3 -11z m4325 -91 c4 0 6 -92 5 -202 l-1 -201 -68
-24 c-196 -66 -367 -196 -478 -364 l-47 -70 -189 190 -190 190 0 238 c0 130 3
239 7 242 7 4 941 5 961 1z m-3220 -15 c90 -32 157 -123 166 -226 10 -103 -55
-208 -154 -252 -123 -54 -271 1 -335 126 -30 57 -30 165 -1 221 49 92 131 144
228 144 33 0 76 -6 96 -13z m2794 -1963 c-69 -68 -127 -123 -131 -123 -4 0
-337 331 -741 735 l-735 734 65 98 c36 54 77 126 93 161 l28 63 773 -773 772
-772 -124 -123z m2041 1595 c-3 -24 -8 -65 -12 -93 -3 -27 -7 -61 -9 -75 -9
-54 -26 -177 -31 -220 -3 -25 -7 -56 -9 -70 -2 -14 -6 -45 -10 -70 -4 -25 -8
-56 -10 -70 -2 -14 -7 -52 -11 -85 -3 -33 -8 -62 -9 -65 -2 -3 -6 -34 -10 -70
-4 -36 -9 -73 -11 -84 -2 -10 -6 -44 -10 -75 -4 -31 -8 -63 -9 -71 -1 -8 -6
-43 -10 -78 -4 -34 -11 -64 -15 -67 -4 -2 -42 30 -85 71 -121 116 -234 186
-377 233 -53 18 -66 26 -63 40 2 10 6 42 10 72 3 30 11 83 16 119 6 36 12 81
14 100 3 19 6 46 8 60 2 14 8 54 12 90 5 36 10 68 11 73 1 4 2 21 3 38 l1 31
48 -6 c74 -9 135 -17 161 -21 49 -8 86 25 97 85 9 45 51 124 85 158 52 52 125
86 197 90 l34 3 -6 -43z m-6036 -633 l-145 -146 -137 139 c-113 114 -144 152
-169 206 -67 143 -46 306 55 438 l21 26 260 -259 260 -259 -145 -145z m6285
640 c27 -3 51 -7 52 -9 1 -1 -2 -29 -7 -62 -5 -32 -11 -81 -15 -109 -3 -27 -7
-61 -10 -75 -2 -14 -7 -47 -10 -75 -5 -45 -42 -312 -80 -585 -8 -58 -17 -125
-20 -150 -3 -25 -8 -56 -10 -70 -2 -14 -7 -47 -10 -75 -3 -27 -8 -59 -10 -70
-2 -11 -4 -33 -4 -48 -1 -28 -2 -29 -43 -23 -24 3 -54 5 -66 5 -23 1 -24 3
-17 64 4 34 9 69 10 77 2 9 6 43 10 75 4 33 9 68 11 79 2 10 6 44 10 75 3 31
8 63 9 71 2 9 7 43 11 75 4 33 8 62 9 65 1 3 5 34 9 70 5 36 10 73 12 84 2 10
6 44 10 75 3 31 7 63 9 71 4 25 14 93 20 140 4 25 8 56 10 70 2 14 7 45 10 70
20 168 22 177 30 190 4 6 9 8 13 6 4 -2 29 -7 57 -11z m-1654 -207 c7 -155
-35 -271 -131 -368 -133 -135 -331 -174 -504 -100 -56 24 -56 28 5 132 72 122
198 238 324 298 66 31 196 66 257 69 48 2 48 2 49 -31z m259 7 c25 -3 54 -7
65 -9 12 -2 48 -7 80 -11 33 -4 67 -9 75 -10 9 -2 43 -6 75 -10 33 -4 63 -9
66 -11 3 -2 2 -27 -2 -56 -5 -29 -11 -75 -14 -103 -3 -27 -8 -61 -10 -75 -2
-14 -9 -61 -15 -105 -6 -44 -13 -95 -15 -112 -3 -18 -8 -57 -11 -85 -4 -29 -8
-55 -10 -57 -2 -2 -28 -5 -56 -7 -134 -7 -235 -26 -314 -59 -20 -8 -40 -15
-44 -15 -4 0 -42 46 -84 101 l-75 102 44 49 c103 114 155 256 156 420 0 63 2
66 22 62 12 -2 42 -6 67 -9z m-1333 -252 l205 -201 -18 -95 -18 -94 -292 291
c-160 160 -290 293 -289 296 2 3 49 5 105 5 l101 0 206 -202z m-548 -664 c402
-402 731 -734 731 -736 0 -3 -45 -50 -100 -105 -55 -54 -105 -108 -110 -118
-17 -32 -11 -70 16 -97 21 -21 32 -25 65 -20 37 5 74 39 506 471 256 256 469
466 473 466 5 0 11 -8 14 -18 10 -29 119 -137 180 -177 52 -35 202 -95 239
-95 19 0 18 30 18 -378 l-1 -254 -447 -445 c-247 -245 -474 -467 -506 -494
-217 -182 -504 -307 -775 -336 -328 -35 -652 33 -927 195 -72 42 -225 154
-225 165 0 4 111 7 248 8 288 0 316 2 402 30 98 31 174 76 250 146 191 177
258 434 179 686 -53 168 -185 315 -351 391 -113 52 -164 59 -453 60 l-260 2
-2 434 c-1 239 -2 454 -2 478 -2 84 -91 125 -146 66 l-24 -26 0 -501 0 -501
-203 -203 -203 -203 -50 34 c-133 89 -323 124 -468 85 -21 -6 -42 -8 -45 -5
-3 3 -6 325 -6 716 -1 626 1 709 14 705 149 -43 434 -54 587 -22 108 23 217
59 308 102 84 40 229 135 289 189 22 20 43 36 47 36 3 0 336 -329 738 -731z
m-2759 226 l-145 -145 -65 65 -65 65 145 145 145 145 65 -65 65 -65 -145 -145z
m4286 -29 l67 -89 -53 -46 c-29 -25 -111 -104 -181 -174 l-128 -129 -181 181
-181 180 11 83 c7 46 13 84 14 86 2 1 16 -3 32 -9 16 -6 58 -19 95 -29 113
-30 308 -13 397 34 15 8 30 11 33 8 4 -4 37 -47 75 -96z m-3678 -580 l0 -289
-316 317 -317 316 145 145 145 145 172 -172 171 -173 0 -289z m4442 458 c36
-9 102 -34 148 -55 l83 -40 -18 -29 c-27 -46 -94 -114 -143 -145 -206 -130
-473 -77 -618 124 l-32 44 37 23 c144 89 365 120 543 78z m547 -389 l175 -176
-169 -168 c-92 -92 -247 -247 -344 -344 l-176 -176 -60 58 -60 59 0 316 c0
255 2 316 13 316 37 0 178 55 234 91 66 43 175 149 185 180 4 11 11 19 17 19
5 0 89 -79 185 -175z m374 -375 c45 -44 92 -83 106 -86 30 -8 61 6 114 48 53
42 152 68 222 57 52 -9 138 -47 144 -64 2 -6 -212 -225 -475 -488 l-478 -478
-197 197 c-109 108 -196 201 -194 207 3 9 665 681 675 686 1 0 39 -35 83 -79z
m-3590 -150 c1 -19 1 -930 0 -947 -1 -10 -94 -13 -431 -13 -260 0 -430 4 -430
9 0 5 4 21 10 36 17 45 22 77 25 170 4 106 -18 207 -65 293 l-30 56 207 206
208 206 253 0 c217 -1 252 -3 253 -16z m4352 -67 l45 -47 -479 -479 -480 -478
-33 28 c-71 60 -106 15 421 543 263 263 479 479 480 479 1 1 22 -20 46 -46z
m-4102 1 c300 -198 291 -631 -15 -823 -28 -17 -53 -31 -57 -31 -4 0 -7 200 -7
445 0 360 2 445 13 445 7 0 37 -16 66 -36z m-1531 -264 c123 -39 224 -142 266
-269 29 -85 26 -200 -6 -283 l-22 -56 -47 16 c-229 78 -403 256 -480 491 -27
82 -27 86 7 100 82 33 180 33 282 1z"/>
<path d="M3386 7724 c-28 -27 -38 -54 -31 -84 11 -49 36 -62 142 -72 196 -18
358 -95 508 -241 50 -48 100 -90 112 -93 30 -8 75 16 90 47 22 46 6 82 -71
158 -159 158 -322 247 -528 286 -107 20 -202 20 -222 -1z"/>
<path d="M4254 7120 c-28 -11 -54 -48 -54 -76 0 -38 31 -148 47 -166 34 -38
108 -29 133 17 12 23 15 54 7 85 -26 101 -39 125 -78 139 -18 6 -32 11 -33 10
-1 0 -11 -4 -22 -9z"/>
<path d="M3299 4835 c-52 -28 -56 -102 -7 -138 25 -18 42 -20 238 -19 237 0
254 4 266 67 7 41 -14 81 -49 94 -12 4 -112 8 -222 9 -153 0 -206 -3 -226 -13z"/>
</g>
</svg>
